<svg width="65" height="65" viewBox="0 0 65 65" fill="none" xmlns="http://www.w3.org/2000/svg">
<g id="icon / iconoir / trophy">
<path id="Vector" d="M18.6542 10.8703H46.8351C46.8351 10.8703 44.4869 46.2226 32.7447 46.2226C27.0086 46.2226 23.5142 37.7863 21.4402 29.1559C19.2686 20.1195 18.6542 10.8703 18.6542 10.8703Z" stroke="#78350F" stroke-width="1.5" stroke-linecap="round" stroke-linejoin="round"/>
<path id="Vector_2" d="M46.8352 10.8703C46.8352 10.8703 49.2917 8.24984 51.3333 8.2036C55.3333 8.11304 56.0728 10.8703 56.0728 10.8703C56.8557 12.4957 57.4819 16.7217 53.7245 20.6227C49.9669 24.5236 45.7608 27.937 44.0491 29.1559" stroke="#78350F" stroke-width="1.5" stroke-linecap="round" stroke-linejoin="round"/>
<path id="Vector_3" d="M18.654 10.8703C18.654 10.8703 16.0946 8.21998 13.9998 8.20364C9.99983 8.17241 9.26034 10.8703 9.26034 10.8703C8.47751 12.4957 7.85127 16.7217 11.6088 20.6227C15.3662 24.5236 19.7286 27.9369 21.4401 29.1561" stroke="#78350F" stroke-width="1.5" stroke-linecap="round" stroke-linejoin="round"/>
<path id="Vector_4" d="M23.351 53.5369C23.351 48.6607 32.7445 46.2225 32.7445 46.2225C32.7445 46.2225 42.1384 48.6607 42.1384 53.5369H23.351Z" stroke="#78350F" stroke-width="1.5" stroke-linecap="round" stroke-linejoin="round"/>
</g>
</svg>
