<svg xmlns="http://www.w3.org/2000/svg" width="25" height="25" viewBox="0 0 25 25" fill="none">
  <path d="M10.5 20.2036C9.96956 20.2036 9.46085 19.9929 9.08578 19.6178C8.71071 19.2428 8.49999 18.734 8.49999 18.2036C8.49999 17.6732 8.71071 17.1645 9.08578 16.7894C9.46085 16.4143 9.96956 16.2036 10.5 16.2036C11.0304 16.2036 11.5391 16.4143 11.9142 16.7894C12.2893 17.1645 12.5 17.6732 12.5 18.2036C12.5 18.734 12.2893 19.2428 11.9142 19.6178C11.5391 19.9929 11.0304 20.2036 10.5 20.2036ZM17.5 20.2036C16.9696 20.2036 16.4609 19.9929 16.0858 19.6178C15.7107 19.2428 15.5 18.734 15.5 18.2036C15.5 17.6732 15.7107 17.1645 16.0858 16.7894C16.4609 16.4143 16.9696 16.2036 17.5 16.2036C18.0304 16.2036 18.5391 16.4143 18.9142 16.7894C19.2893 17.1645 19.5 17.6732 19.5 18.2036C19.5 18.734 19.2893 19.2428 18.9142 19.6178C18.5391 19.9929 18.0304 20.2036 17.5 20.2036ZM4.46199 6.12661C4.21236 6.11856 3.97563 6.01373 3.80189 5.8343C3.62815 5.65486 3.53101 5.41488 3.53101 5.16511C3.53101 4.91534 3.62815 4.67537 3.80189 4.49593C3.97563 4.31649 4.21236 4.21167 4.46199 4.20361H5.61299C6.51499 4.20361 7.29499 4.82961 7.49099 5.70961L8.74399 11.3516C8.93999 12.2316 9.71999 12.8576 10.622 12.8576H18.134L19.576 7.08761H10.231C9.9837 7.07633 9.75028 6.97015 9.57928 6.79117C9.40827 6.61218 9.31285 6.37416 9.31285 6.12661C9.31285 5.87907 9.40827 5.64105 9.57928 5.46206C9.75028 5.28307 9.9837 5.1769 10.231 5.16561H19.576C19.8683 5.16553 20.1568 5.23209 20.4196 5.36025C20.6823 5.4884 20.9124 5.67478 21.0923 5.9052C21.2722 6.13562 21.3972 6.40402 21.4578 6.69001C21.5184 6.97599 21.513 7.27203 21.442 7.55561L20 13.3236C19.896 13.7398 19.6559 14.1093 19.3178 14.3733C18.9797 14.6373 18.563 14.7807 18.134 14.7806H10.622C9.74679 14.7807 8.89772 14.4823 8.21501 13.9347C7.5323 13.3871 7.05678 12.623 6.86699 11.7686L5.61299 6.12661H4.46199Z" fill="white"/>
</svg>