<svg xmlns="http://www.w3.org/2000/svg" width="24" height="24" viewBox="0 0 24 24" fill="none">
  <path d="M10.5 16.5C11.2879 16.5 12.0681 16.3448 12.7961 16.0433C13.5241 15.7418 14.1855 15.2998 14.7426 14.7427C15.2998 14.1855 15.7417 13.5241 16.0433 12.7961C16.3448 12.0682 16.5 11.2879 16.5 10.5C16.5 9.71208 16.3448 8.93187 16.0433 8.20391C15.7417 7.47596 15.2998 6.81453 14.7426 6.25737C14.1855 5.70022 13.5241 5.25827 12.7961 4.95674C12.0681 4.65521 11.2879 4.50002 10.5 4.50002C8.9087 4.50002 7.38258 5.13216 6.25736 6.25737C5.13214 7.38259 4.5 8.90872 4.5 10.5C4.5 12.0913 5.13214 13.6174 6.25736 14.7427C7.38258 15.8679 8.9087 16.5 10.5 16.5ZM16.82 15.406L20.4 18.986C20.4954 19.0783 20.5715 19.1887 20.6239 19.3108C20.6762 19.4328 20.7037 19.564 20.7047 19.6968C20.7058 19.8296 20.6804 19.9613 20.63 20.0841C20.5797 20.207 20.5053 20.3186 20.4114 20.4124C20.3174 20.5062 20.2057 20.5804 20.0828 20.6306C19.9599 20.6808 19.8282 20.706 19.6954 20.7048C19.5626 20.7035 19.4314 20.6758 19.3094 20.6233C19.1875 20.5708 19.0772 20.4946 18.985 20.399L15.405 16.819C13.7975 18.0669 11.7748 18.6552 9.74875 18.4642C7.72271 18.2732 5.8456 17.3173 4.49955 15.7911C3.1535 14.2648 2.43968 12.283 2.50343 10.2489C2.56717 8.21492 3.40367 6.28164 4.84265 4.84266C6.28162 3.40368 8.2149 2.56718 10.2489 2.50344C12.2829 2.4397 14.2648 3.15351 15.7911 4.49957C17.3173 5.84562 18.2732 7.72273 18.4642 9.74877C18.6552 11.7748 18.0668 13.7975 16.819 15.405L16.82 15.406Z" fill="#0F172A"/>
</svg>