<svg xmlns="http://www.w3.org/2000/svg" width="24" height="24" viewBox="0 0 24 24" fill="none">
  <path d="M12.308 15.471L12.384 14.407L13.311 13.878C14.2011 13.3622 15.0188 12.7307 15.743 12C18.383 9.35898 19.189 6.25398 18.218 5.28198C17.246 4.31198 14.141 5.11598 11.5 7.75698C10.74 8.51698 10.103 9.34698 9.622 10.189L9.092 11.116L8.029 11.192C7.15666 11.2532 6.32887 11.6004 5.674 12.18C6.92395 12.73 8.06038 13.5083 9.025 14.475C10.005 15.455 10.777 16.592 11.32 17.826C11.8995 17.1711 12.2468 16.3433 12.308 15.471ZM9.335 18.3C9.13389 18.5734 8.91225 18.8312 8.672 19.071C7.5 20.243 5.732 20.596 3.368 20.131C2.904 17.768 3.258 16 4.428 14.828C4.676 14.582 4.934 14.36 5.2 14.165C4.3802 13.7645 3.50413 13.4914 2.602 13.355C2.89243 12.4433 3.3976 11.6147 4.075 10.939C5.0934 9.91804 6.44656 9.2997 7.885 9.19798C8.48878 8.15316 9.22858 7.19311 10.085 6.34298C13.405 3.02298 17.679 1.91598 19.632 3.86798C21.584 5.82098 20.476 10.095 17.157 13.414C16.3069 14.2704 15.3468 15.0102 14.302 15.614C14.2003 17.0524 13.5819 18.4056 12.561 19.424C11.8858 20.1023 11.0571 20.6079 10.145 20.898C10.0086 19.9958 9.73548 19.1198 9.335 18.3ZM7.61 15.89C7.44897 15.7286 7.26742 15.589 7.07 15.475C6.638 15.625 6.13 15.955 5.665 16.419C5.446 16.639 5.178 17.378 5.175 18.324C6.121 18.321 6.863 18.05 7.08 17.834C7.545 17.368 7.875 16.861 8.024 16.429C7.91025 16.2316 7.77106 16.0501 7.61 15.889V15.89ZM15.388 8.10998C15.2903 8.01825 15.2121 7.90783 15.1579 7.78527C15.1037 7.66271 15.0747 7.53052 15.0727 7.39654C15.0706 7.26256 15.0955 7.12953 15.1458 7.00535C15.1961 6.88117 15.2709 6.76837 15.3657 6.67365C15.4605 6.57894 15.5733 6.50424 15.6975 6.45399C15.8218 6.40374 15.9548 6.37897 16.0888 6.38114C16.2228 6.38332 16.3549 6.4124 16.4775 6.46665C16.6 6.52091 16.7103 6.59923 16.802 6.69698C16.9744 6.88714 17.0671 7.13633 17.0609 7.39295C17.0547 7.64957 16.95 7.89397 16.7685 8.07555C16.5871 8.25712 16.3428 8.36197 16.0862 8.36838C15.8295 8.37479 15.5803 8.28227 15.39 8.10998H15.388Z" fill="#0F172A"/>
</svg>